<svg width="806" height="540" viewBox="0 0 806 540" fill="none" xmlns="http://www.w3.org/2000/svg"><path d="M196 452.5C12.5 474 8 286.5 8 286.5s70.9 54 136.5 27S166 218 265.5 218s114 213-69.5 234.5Z" fill="#3789C6" stroke="black" stroke-width="15" stroke-linejoin="round"/><circle cx="270" cy="298" r="15" fill="black"/><path d="M152.5 453.5v78" stroke="black" stroke-width="15" stroke-linecap="round" stroke-linejoin="round"/><path d="M208 454v78" stroke="black" stroke-width="15" stroke-linecap="round" stroke-linejoin="round"/><path d="M338 298.5h34" stroke="black" stroke-width="15" stroke-linecap="round" stroke-linejoin="round"/><path d="M610 452.5c183.5 21.5 188-166 188-166s-70.9 54-136.5 27S640 218 540.5 218s-114 213 69.5 234.5Z" fill="#ED8870" stroke="black" stroke-width="15" stroke-linejoin="round"/><circle r="15" transform="matrix(-1 0 0 1 536 298)" fill="black"/><path d="M653.5 453.5v78" stroke="black" stroke-width="15" stroke-linecap="round" stroke-linejoin="round"/><path d="M598 454v78" stroke="black" stroke-width="15" stroke-linecap="round" stroke-linejoin="round"/><path d="M468 298.5h-34" stroke="black" stroke-width="15" stroke-linecap="round" stroke-linejoin="round"/><path d="m353 217.5 12.5-43 68-2.5-80.5 45.5Z" fill="white"/><rect x="312" y="76" width="171" height="107" rx="6" fill="white"/><path d="M384 122V29a21 21 0 0 1 21-21h170.5c11 0 20 9 20 20v94c0 11-9 20-20 20h-34l12.5 46-53.5-46H404c-11 0-20-9-20-20Z" fill="#FFAE75" stroke="black" stroke-width="15" stroke-linecap="round" stroke-linejoin="round"/><path d="M361 76h-34c-11 0-20 9-20 20v70c0 11 9 20 20 20h34l-14 40.5 65.5-40.5H463c11 0 20-9 20-20v-1" stroke="black" stroke-width="15" stroke-linecap="round" stroke-linejoin="round"/></svg>