<svg width="123" height="36" viewBox="0 0 123 36" fill="none" xmlns="http://www.w3.org/2000/svg">
<path fill-rule="evenodd" clip-rule="evenodd" d="M54.8519 4.72698C54.5661 4.58919 54.1887 4.43328 53.7197 4.25924C53.2507 4.08519 52.7194 3.92203 52.1258 3.76974C51.5322 3.6102 50.8873 3.47967 50.1911 3.37814C49.495 3.26937 48.7805 3.21498 48.0476 3.21498C47.4614 3.21498 46.9594 3.23311 46.5417 3.26937C46.1313 3.30563 45.7832 3.35276 45.4974 3.41078C45.2189 3.46879 44.9954 3.53768 44.8269 3.61745C44.6656 3.68997 44.5411 3.76612 44.4531 3.84589C44.3652 3.92565 44.3066 4.00542 44.2773 4.08519C44.2553 4.16496 44.2443 4.23748 44.2443 4.30275C44.2443 4.5203 44.3542 4.71247 44.574 4.87926C44.7939 5.0388 45.0943 5.18384 45.4754 5.31437C45.8565 5.43765 46.2998 5.55731 46.8055 5.67334C47.3111 5.78211 47.8461 5.89814 48.4104 6.02142C48.982 6.13745 49.5682 6.26798 50.1692 6.41302C50.7774 6.5508 51.3637 6.71397 51.9279 6.90251C52.4995 7.09106 53.0382 7.31224 53.5438 7.56605C54.0495 7.81261 54.4928 8.10268 54.8739 8.43627C55.255 8.76985 55.5554 9.15419 55.7753 9.5893C55.9951 10.0244 56.105 10.5212 56.105 11.0795C56.105 11.7975 55.9768 12.4139 55.7203 12.9287C55.4638 13.4436 55.1194 13.8787 54.687 14.2341C54.262 14.5894 53.7673 14.8759 53.203 15.0934C52.6388 15.3037 52.0452 15.4669 51.4223 15.5829C50.8067 15.6989 50.1801 15.7751 49.5426 15.8113C48.9124 15.8476 48.3115 15.8657 47.7398 15.8657C46.2449 15.8657 44.8598 15.7424 43.5847 15.4959C42.3169 15.2566 41.1957 14.9556 40.2211 14.593V11.0252C41.225 11.5763 42.3682 12.0078 43.6507 12.3196C44.9405 12.6314 46.3182 12.7873 47.7838 12.7873C48.6485 12.7873 49.3521 12.7438 49.8944 12.6568C50.444 12.5625 50.8727 12.4465 51.1805 12.3087C51.4882 12.1637 51.6971 12.0078 51.807 11.841C51.9169 11.6742 51.9719 11.5146 51.9719 11.3624C51.9719 11.1231 51.862 10.9164 51.6421 10.7423C51.4223 10.561 51.1218 10.4051 50.7408 10.2746C50.3597 10.1368 49.9163 10.0135 49.4107 9.90475C48.905 9.78872 48.3664 9.67632 47.7948 9.56754C47.2305 9.45152 46.6479 9.32824 46.047 9.1977C45.4461 9.06717 44.8598 8.91488 44.2882 8.74084C43.724 8.55955 43.189 8.35287 42.6834 8.12081C42.1777 7.8815 41.7343 7.60231 41.3533 7.28323C40.9722 6.9569 40.6718 6.58343 40.4519 6.16283C40.2321 5.73498 40.1221 5.24185 40.1221 4.68347C40.1221 4.02355 40.2394 3.45429 40.4739 2.97567C40.7084 2.49705 41.0235 2.09095 41.4192 1.75737C41.8223 1.41654 42.284 1.14097 42.8043 0.930667C43.3319 0.720366 43.8852 0.5572 44.4641 0.441172C45.0431 0.325143 45.6293 0.245373 46.2229 0.201863C46.8165 0.158352 47.3808 0.136597 47.9157 0.136597C48.502 0.136597 49.1029 0.165604 49.7185 0.223618C50.3414 0.281632 50.9533 0.365028 51.5542 0.473805C52.1551 0.57533 52.734 0.694984 53.291 0.832768C53.8553 0.970552 54.3756 1.11559 54.8519 1.26788V4.72698ZM32.1966 13.9948V15.4632H36.2748V5.55368C36.2748 4.6327 36.055 3.83863 35.6153 3.17147C35.1829 2.5043 34.5783 1.95317 33.8015 1.51806C33.0321 1.08295 32.1124 0.763876 31.0424 0.560826C29.9725 0.350525 28.8037 0.245373 27.5359 0.245373C26.891 0.245373 26.2168 0.274381 25.5133 0.332395C24.8098 0.383158 24.1136 0.455675 23.4247 0.549948C22.7359 0.63697 22.0727 0.742121 21.4351 0.865401C20.7976 0.988682 20.2223 1.11559 19.7093 1.24612V4.83575C20.2003 4.64721 20.7463 4.46591 21.3472 4.29187C21.9481 4.11783 22.582 3.96554 23.2489 3.83501C23.9231 3.70448 24.6192 3.60295 25.3374 3.53043C26.0629 3.45066 26.7957 3.41078 27.5359 3.41078C28.4739 3.41078 29.2434 3.46879 29.8443 3.58482C30.4525 3.70085 30.9289 3.85314 31.2733 4.04168C31.625 4.22298 31.8669 4.43691 31.9988 4.68347C32.1307 4.92278 32.1966 5.16571 32.1966 5.41227V5.72772C29.8076 5.85826 27.7374 6.03955 25.986 6.27161C24.2418 6.50366 22.7982 6.83362 21.655 7.26148C20.5118 7.68933 19.6617 8.24047 19.1047 8.91488C18.5478 9.58205 18.2693 10.4196 18.2693 11.4276C18.2693 12.2253 18.4452 12.8997 18.7969 13.4509C19.156 14.002 19.6287 14.448 20.215 14.7888C20.8012 15.1297 21.4718 15.3762 22.2266 15.5285C22.9887 15.6808 23.7765 15.7569 24.5899 15.7569C25.2861 15.7569 25.975 15.7171 26.6565 15.6373C27.3453 15.5648 28.0122 15.4524 28.6571 15.3001C29.302 15.1478 29.9212 14.9629 30.5148 14.7453C31.1157 14.5278 31.6763 14.2776 32.1966 13.9948ZM28.1954 8.89313C29.2947 8.78435 30.6284 8.70096 32.1966 8.64294V10.6118C31.8009 10.8874 31.3502 11.1484 30.8446 11.395C30.3463 11.6343 29.8113 11.8446 29.2397 12.0259C28.6681 12.1999 28.0635 12.3377 27.426 12.4393C26.7884 12.5408 26.1362 12.5915 25.4693 12.5915C24.8684 12.5915 24.3701 12.5553 23.9743 12.4828C23.5786 12.4102 23.2598 12.3123 23.018 12.1891C22.7835 12.0658 22.6186 11.9244 22.5234 11.7648C22.4281 11.598 22.3805 11.4276 22.3805 11.2536C22.3805 11.1085 22.4024 10.949 22.4464 10.775C22.4977 10.6009 22.626 10.4269 22.8311 10.2528C23.0363 10.0788 23.3441 9.90838 23.7545 9.74159C24.1722 9.5748 24.7438 9.41888 25.4693 9.27385C26.1948 9.12881 27.1035 9.00191 28.1954 8.89313ZM0 14.4632C0 15.0155 0.447716 15.4632 1 15.4632H8.77542C9.12968 15.4632 9.4575 15.2758 9.63721 14.9705L10.336 13.7834C10.7284 13.1167 10.2478 12.2761 9.47421 12.2761H4.18809V9.36087H13.7188C14.2711 9.36087 14.7188 8.91315 14.7188 8.36087V7.17371C14.7188 6.62142 14.2711 6.17371 13.7188 6.17371H4.18809V3.70448H14.2904C14.8427 3.70448 15.2904 3.25676 15.2904 2.70447V1.51732C15.2904 0.96503 14.8427 0.517315 14.2904 0.517315H1C0.447715 0.517315 0 0.965031 0 1.51732V14.4632ZM77.1884 12.3196C77.6721 11.5582 77.9139 10.6916 77.9139 9.71983V0.517315H73.8247V4.30275C73.5389 4.65083 73.1982 4.99167 72.8024 5.32525C72.4067 5.65883 71.9634 5.95616 71.4724 6.21722C70.9814 6.47828 70.4427 6.68859 69.8565 6.84812C69.2775 7.00766 68.662 7.08743 68.0098 7.08743C67.2403 7.08743 66.5844 7.00766 66.0421 6.84812C65.4998 6.68859 65.0565 6.45653 64.7121 6.15195C64.375 5.84013 64.1258 5.45578 63.9646 4.99892C63.8107 4.54206 63.7337 4.01993 63.7337 3.43253V0.517315H59.6336V3.83501C59.6336 4.83575 59.7618 5.73498 60.0183 6.53267C60.2821 7.33037 60.7218 8.00841 61.3374 8.5668C61.953 9.11793 62.7701 9.54216 63.7887 9.83949C64.8147 10.1296 66.0934 10.2746 67.625 10.2746C68.9441 10.2746 70.1203 10.1006 71.1536 9.75247C72.1869 9.39713 73.0773 8.94752 73.8247 8.40363V9.71983C73.8247 9.90838 73.7844 10.1114 73.7038 10.329C73.6305 10.5465 73.5023 10.7677 73.3191 10.9925C73.1359 11.2101 72.894 11.424 72.5936 11.6343C72.2931 11.8374 71.9157 12.0186 71.4614 12.1782C71.007 12.3377 70.4684 12.4646 69.8455 12.5589C69.2299 12.6532 68.5154 12.7003 67.702 12.7003C66.8372 12.7003 66.0165 12.6641 65.2397 12.5915C64.4702 12.5118 63.7484 12.4066 63.0742 12.2761C62.4 12.1383 61.7734 11.9824 61.1945 11.8083C60.6229 11.6343 60.1026 11.4494 59.6336 11.2536V14.7997C60.066 14.952 60.5972 15.0934 61.2275 15.2239C61.8577 15.3472 62.5319 15.456 63.2501 15.5503C63.9756 15.6518 64.7157 15.7279 65.4705 15.7787C66.2327 15.8367 66.9582 15.8657 67.647 15.8657C69.2153 15.8657 70.6296 15.7279 71.8901 15.4524C73.1579 15.1768 74.2351 14.778 75.1218 14.2558C76.0159 13.7264 76.7047 13.081 77.1884 12.3196ZM16.1661 30.5612C16.1661 31.3081 15.9792 32.0115 15.6055 32.6715C15.2318 33.3314 14.6711 33.9079 13.9237 34.401C13.1762 34.8941 12.2418 35.2857 11.1206 35.5758C11.0014 35.6061 10.8907 35.6347 10.7862 35.6618L10.7855 35.662L10.7855 35.662C9.91507 35.8873 9.47986 36 8.14534 36C6.81085 36 6.36979 35.8873 5.48773 35.662L5.48768 35.662L5.48763 35.662L5.48732 35.6619L5.48355 35.6609L5.48333 35.6609L5.48203 35.6605C5.37764 35.6339 5.26706 35.6056 5.14809 35.5758C4.02687 35.2857 3.09252 34.8941 2.34504 34.401C1.59756 33.9079 1.03695 33.3314 0.663206 32.6715C0.289466 32.0115 0.102595 31.3081 0.102595 30.5612V21.6516C0.102595 21.0993 0.550311 20.6516 1.1026 20.6516H3.16977C3.72206 20.6516 4.16977 21.0993 4.16977 21.6516V28.6503C4.16977 29.1507 4.23206 29.6257 4.35664 30.0753C4.48855 30.5177 4.73038 30.9056 5.08214 31.2392C5.44122 31.5728 5.93954 31.8375 6.5771 32.0333C7.22198 32.2291 7.5884 32.327 8.14534 32.327C8.89593 32.327 9.03375 32.2738 9.30939 32.1675C9.40783 32.1296 9.52384 32.0848 9.6916 32.0333C10.3292 31.8375 10.8238 31.5728 11.1756 31.2392C11.5347 30.9056 11.7765 30.5177 11.9011 30.0753C12.0256 29.6257 12.0879 29.1507 12.0879 28.6503V21.6741H10.6221C10.0778 21.6741 9.74789 21.0939 10.0283 20.6298L13.5416 14.5963C13.822 14.1322 14.4983 14.1322 14.7457 14.5963L18.2755 20.6298C18.5394 21.0939 18.2095 21.6741 17.6817 21.6741H16.1661V30.5612ZM37.8944 27.82C38.1142 27.1891 38.2241 26.5002 38.2241 25.7533C38.2241 25.0063 38.1142 24.321 37.8944 23.6974C37.6745 23.0737 37.3191 22.5371 36.8281 22.0875C36.3444 21.6306 35.7142 21.2789 34.9374 21.0323C34.1606 20.7785 33.2153 20.6516 32.1014 20.6516H21.2519V35.5975H25.3301V30.8766H32.1014C33.2153 30.8766 34.1606 30.7497 34.9374 30.4959C35.7142 30.2421 36.3444 29.8904 36.8281 29.4408C37.3191 28.9839 37.6745 28.4437 37.8944 27.82ZM33.9481 24.9265C34.0507 25.1731 34.102 25.4704 34.102 25.8185C34.102 26.1666 34.0507 26.4603 33.9481 26.6996C33.8528 26.9389 33.6916 27.1347 33.4644 27.287C33.2373 27.432 32.9405 27.5372 32.574 27.6025C32.2076 27.6605 31.7569 27.6895 31.222 27.6895H25.3301V23.8388H31.222C31.7569 23.8388 32.2076 23.8787 32.574 23.9584C32.9405 24.031 33.2373 24.147 33.4644 24.3065C33.6916 24.4661 33.8528 24.6727 33.9481 24.9265ZM44.7499 29.2015C44.7499 29.8251 44.8085 30.3364 44.9258 30.7352C45.043 31.1268 45.2336 31.4387 45.4974 31.6707C45.7612 31.9028 46.102 32.0623 46.5197 32.1493C46.9447 32.2363 47.465 32.2799 48.0806 32.2799H55.8192V35.5975H47.2452C46.058 35.5975 45.0467 35.5033 44.2113 35.3147C43.3832 35.1189 42.7053 34.8216 42.1777 34.4228C41.6501 34.0167 41.2653 33.5054 41.0235 32.889C40.789 32.2726 40.6718 31.5402 40.6718 30.6917V20.6516H44.7499V29.2015ZM77.9249 31.5402C78.4012 30.5539 78.6394 29.419 78.6394 28.1355C78.6394 26.8519 78.4012 25.7206 77.9249 24.7416C77.4485 23.7554 76.767 22.9323 75.8803 22.2724C74.9936 21.6125 73.9163 21.1157 72.6486 20.7822C71.3881 20.4413 69.9701 20.2709 68.3945 20.2709C66.8189 20.2709 65.3936 20.4413 64.1185 20.7822C62.8507 21.1157 61.7698 21.6125 60.8757 22.2724C59.9817 22.9323 59.2928 23.7554 58.8092 24.7416C58.3255 25.7206 58.0837 26.8519 58.0837 28.1355C58.0837 29.419 58.3255 30.5539 58.8092 31.5402C59.2928 32.5192 59.9817 33.3386 60.8757 33.9985C61.7698 34.6584 62.8507 35.1588 64.1185 35.4997C65.3936 35.8332 66.8189 36 68.3945 36C69.9701 36 71.3881 35.8332 72.6486 35.4997C73.9163 35.1588 74.9936 34.6584 75.8803 33.9985C76.767 33.3386 77.4485 32.5192 77.9249 31.5402ZM74.2424 26.4712C74.4256 27.0223 74.5172 27.5771 74.5172 28.1355C74.5172 28.6939 74.4256 29.2522 74.2424 29.8106C74.0666 30.3618 73.7478 30.8585 73.2861 31.3009C72.8317 31.7432 72.2088 32.1022 71.4174 32.3778C70.6259 32.6533 69.6183 32.7911 68.3945 32.7911C67.5737 32.7911 66.8519 32.7295 66.229 32.6062C65.6061 32.4757 65.0675 32.3016 64.6131 32.0841C64.1588 31.8593 63.7777 31.5982 63.4699 31.3009C63.1621 31.0035 62.9166 30.6845 62.7334 30.3436C62.5502 29.9955 62.4183 29.633 62.3377 29.2559C62.2644 28.8788 62.2278 28.5053 62.2278 28.1355C62.2278 27.7729 62.2644 27.4067 62.3377 27.0368C62.4183 26.6597 62.5502 26.3008 62.7334 25.9599C62.9166 25.6118 63.1621 25.2891 63.4699 24.9918C63.7777 24.6872 64.1588 24.4225 64.6131 24.1977C65.0675 23.9729 65.6061 23.7989 66.229 23.6756C66.8519 23.5451 67.5737 23.4798 68.3945 23.4798C69.6183 23.4798 70.6259 23.6176 71.4174 23.8932C72.2088 24.1687 72.8317 24.5277 73.2861 24.9701C73.7478 25.4124 74.0666 25.9128 74.2424 26.4712ZM95.1609 35.5975V34.1291C94.6406 34.4119 94.08 34.6621 93.4791 34.8796C92.8855 35.0972 92.2663 35.2821 91.6214 35.4344C90.9765 35.5867 90.3096 35.6991 89.6208 35.7716C88.9392 35.8514 88.2504 35.8913 87.5542 35.8913C86.7408 35.8913 85.953 35.8151 85.1908 35.6628C84.436 35.5105 83.7655 35.264 83.1792 34.9231C82.593 34.5823 82.1203 34.1363 81.7612 33.5852C81.4095 33.034 81.2336 32.3596 81.2336 31.5619C81.2336 30.5539 81.5121 29.7164 82.069 29.0492C82.626 28.3748 83.476 27.8236 84.6192 27.3958C85.7624 26.9679 87.2061 26.638 88.9502 26.4059C90.7017 26.1739 92.7719 25.9926 95.1609 25.862V25.5466C95.1609 25.3 95.095 25.0571 94.9631 24.8178C94.8311 24.5712 94.5893 24.3573 94.2376 24.176C93.8931 23.9874 93.4168 23.8352 92.8085 23.7191C92.2076 23.6031 91.4382 23.5451 90.5001 23.5451C89.76 23.5451 89.0272 23.585 88.3017 23.6647C87.5835 23.7373 86.8873 23.8388 86.2131 23.9693C85.5463 24.0998 84.9124 24.2521 84.3114 24.4262C83.7105 24.6002 83.1646 24.7815 82.6736 24.9701V21.3804C83.1866 21.2499 83.7618 21.123 84.3994 20.9997C85.0369 20.8764 85.7001 20.7713 86.389 20.6843C87.0779 20.59 87.774 20.5175 88.4776 20.4667C89.1811 20.4087 89.8553 20.3797 90.5001 20.3797C91.7679 20.3797 92.9368 20.4848 94.0067 20.6951C95.0766 20.8982 95.9963 21.2173 96.7658 21.6524C97.5426 22.0875 98.1472 22.6386 98.5795 23.3058C99.0192 23.9729 99.2391 24.767 99.2391 25.688V35.5975H95.1609ZM95.1609 28.7772C93.5927 28.8353 92.2589 28.9187 91.1597 29.0274C90.0678 29.1362 89.1591 29.2631 88.4336 29.4082C87.7081 29.5532 87.1365 29.7091 86.7188 29.8759C86.3084 30.0427 86.0006 30.2131 85.7954 30.3871C85.5902 30.5612 85.462 30.7352 85.4107 30.9093C85.3667 31.0833 85.3447 31.2429 85.3447 31.3879C85.3447 31.5619 85.3924 31.7324 85.4876 31.8991C85.5829 32.0587 85.7478 32.2001 85.9823 32.3234C86.2241 32.4466 86.5429 32.5445 86.9386 32.6171C87.3344 32.6896 87.8327 32.7258 88.4336 32.7258C89.1005 32.7258 89.7527 32.6751 90.3902 32.5736C91.0278 32.472 91.6324 32.3342 92.204 32.1602C92.7756 31.9789 93.3105 31.7686 93.8089 31.5293C94.3145 31.2827 94.7652 31.0217 95.1609 30.7461V28.7772ZM122.081 30.67C122.294 29.923 122.4 29.0709 122.4 28.1137C122.4 27.1637 122.294 26.3189 122.081 25.5792C121.869 24.8395 121.568 24.1941 121.18 23.643C120.799 23.0846 120.337 22.6169 119.795 22.2398C119.253 21.8554 118.648 21.5472 117.981 21.3152C117.322 21.0831 116.611 20.9163 115.849 20.8148C115.086 20.706 114.291 20.6516 113.463 20.6516H103.9V35.5975H113.485C114.313 35.5975 115.108 35.5468 115.871 35.4453C116.633 35.3365 117.344 35.1661 118.003 34.934C118.663 34.702 119.26 34.3938 119.795 34.0094C120.337 33.6251 120.799 33.1573 121.18 32.6062C121.568 32.0551 121.869 31.4096 122.081 30.67ZM118.003 26.2427C118.194 26.7721 118.289 27.3958 118.289 28.1137C118.289 28.8316 118.194 29.4553 118.003 29.9847C117.82 30.514 117.519 30.9564 117.102 31.3117C116.691 31.6598 116.153 31.9209 115.486 32.0949C114.819 32.2617 114.005 32.3451 113.045 32.3451H107.978V23.904H113.045C114.005 23.904 114.819 23.9911 115.486 24.1651C116.153 24.3319 116.691 24.5893 117.102 24.9374C117.519 25.2783 117.82 25.7134 118.003 26.2427Z" fill="#BCED09"/>
</svg>
