<svg width="159" height="20" viewBox="0 0 159 20" fill="none" xmlns="http://www.w3.org/2000/svg">
<path d="M57.9146 3.172V5.09H55.3106V13H52.9166V5.09H50.3126V3.172H57.9146Z" fill="black"/>
<path d="M63.918 5.104C64.814 5.104 65.5327 5.40267 66.0741 6C66.6154 6.588 66.886 7.4 66.886 8.436V13H64.5061V8.758C64.5061 8.23533 64.3707 7.82933 64.1 7.54C63.8294 7.25067 63.4654 7.106 63.008 7.106C62.5507 7.106 62.1867 7.25067 61.916 7.54C61.6454 7.82933 61.51 8.23533 61.51 8.758V13H59.116V2.64H61.51V6.238C61.7527 5.89267 62.084 5.61733 62.504 5.412C62.924 5.20667 63.3954 5.104 63.918 5.104Z" fill="black"/>
<path d="M76.2636 5.188V13H73.8696V11.936C73.627 12.2813 73.2956 12.5613 72.8756 12.776C72.465 12.9813 72.0076 13.084 71.5036 13.084C70.9063 13.084 70.379 12.9533 69.9216 12.692C69.4643 12.4213 69.1096 12.034 68.8576 11.53C68.6056 11.026 68.4796 10.4333 68.4796 9.752V5.188H70.8596V9.43C70.8596 9.95267 70.995 10.3587 71.2656 10.648C71.5363 10.9373 71.9003 11.082 72.3576 11.082C72.8243 11.082 73.193 10.9373 73.4636 10.648C73.7343 10.3587 73.8696 9.95267 73.8696 9.43V5.188H76.2636Z" fill="black"/>
<path d="M87.9512 5.104C88.9219 5.104 89.6919 5.398 90.2612 5.986C90.8399 6.574 91.1292 7.39067 91.1292 8.436V13H88.7492V8.758C88.7492 8.254 88.6139 7.86667 88.3432 7.596C88.0819 7.316 87.7179 7.176 87.2512 7.176C86.7846 7.176 86.4159 7.316 86.1452 7.596C85.8839 7.86667 85.7532 8.254 85.7532 8.758V13H83.3732V8.758C83.3732 8.254 83.2379 7.86667 82.9672 7.596C82.7059 7.316 82.3419 7.176 81.8752 7.176C81.4086 7.176 81.0399 7.316 80.7692 7.596C80.5079 7.86667 80.3772 8.254 80.3772 8.758V13H77.9832V5.188H80.3772V6.168C80.6199 5.84133 80.9372 5.58467 81.3292 5.398C81.7212 5.202 82.1646 5.104 82.6592 5.104C83.2472 5.104 83.7699 5.23 84.2272 5.482C84.6939 5.734 85.0579 6.09333 85.3192 6.56C85.5899 6.13067 85.9586 5.78067 86.4252 5.51C86.8919 5.23933 87.4006 5.104 87.9512 5.104Z" fill="black"/>
<path d="M95.1975 6.294C95.4215 5.93 95.7435 5.636 96.1635 5.412C96.5835 5.188 97.0642 5.076 97.6055 5.076C98.2495 5.076 98.8329 5.23933 99.3555 5.566C99.8782 5.89267 100.289 6.35933 100.588 6.966C100.896 7.57267 101.05 8.27733 101.05 9.08C101.05 9.88267 100.896 10.592 100.588 11.208C100.289 11.8147 99.8782 12.286 99.3555 12.622C98.8329 12.9487 98.2495 13.112 97.6055 13.112C97.0549 13.112 96.5742 13.0047 96.1635 12.79C95.7529 12.566 95.4309 12.272 95.1975 11.908V13H92.8036V2.64H95.1975V6.294ZM98.6135 9.08C98.6135 8.48267 98.4456 8.016 98.1096 7.68C97.7829 7.33467 97.3769 7.162 96.8915 7.162C96.4155 7.162 96.0095 7.33467 95.6735 7.68C95.3469 8.02533 95.1835 8.49667 95.1835 9.094C95.1835 9.69133 95.3469 10.1627 95.6735 10.508C96.0095 10.8533 96.4155 11.026 96.8915 11.026C97.3675 11.026 97.7736 10.8533 98.1096 10.508C98.4456 10.1533 98.6135 9.67733 98.6135 9.08Z" fill="black"/>
<path d="M107.065 5.104C107.98 5.104 108.708 5.40267 109.25 6C109.8 6.588 110.076 7.4 110.076 8.436V13H107.696V8.758C107.696 8.23533 107.56 7.82933 107.289 7.54C107.019 7.25067 106.655 7.106 106.198 7.106C105.74 7.106 105.376 7.25067 105.105 7.54C104.835 7.82933 104.7 8.23533 104.7 8.758V13H102.306V5.188H104.7V6.224C104.942 5.87867 105.269 5.608 105.679 5.412C106.09 5.20667 106.552 5.104 107.065 5.104Z" fill="black"/>
<path d="M111.263 9.08C111.263 8.27733 111.412 7.57267 111.711 6.966C112.019 6.35933 112.434 5.89267 112.957 5.566C113.48 5.23933 114.063 5.076 114.707 5.076C115.258 5.076 115.738 5.188 116.149 5.412C116.569 5.636 116.891 5.93 117.115 6.294V5.188H119.509V13H117.115V11.894C116.882 12.258 116.555 12.552 116.135 12.776C115.724 13 115.244 13.112 114.693 13.112C114.058 13.112 113.48 12.9487 112.957 12.622C112.434 12.286 112.019 11.8147 111.711 11.208C111.412 10.592 111.263 9.88267 111.263 9.08ZM117.115 9.094C117.115 8.49667 116.947 8.02533 116.611 7.68C116.284 7.33467 115.883 7.162 115.407 7.162C114.931 7.162 114.525 7.33467 114.189 7.68C113.862 8.016 113.699 8.48267 113.699 9.08C113.699 9.67733 113.862 10.1533 114.189 10.508C114.525 10.8533 114.931 11.026 115.407 11.026C115.883 11.026 116.284 10.8533 116.611 10.508C116.947 10.1627 117.115 9.69133 117.115 9.094Z" fill="black"/>
<path d="M122.445 4.376C122.025 4.376 121.68 4.25467 121.409 4.012C121.148 3.76 121.017 3.452 121.017 3.088C121.017 2.71467 121.148 2.40667 121.409 2.164C121.68 1.912 122.025 1.786 122.445 1.786C122.856 1.786 123.192 1.912 123.453 2.164C123.724 2.40667 123.859 2.71467 123.859 3.088C123.859 3.452 123.724 3.76 123.453 4.012C123.192 4.25467 122.856 4.376 122.445 4.376ZM123.635 5.188V13H121.241V5.188H123.635Z" fill="black"/>
<path d="M127.764 2.64V13H125.37V2.64H127.764Z" fill="black"/>
<path d="M136.569 3.172V5.09H133.965V13H131.571V5.09H128.967V3.172H136.569Z" fill="black"/>
<path d="M145.134 8.968C145.134 9.192 145.12 9.42533 145.092 9.668H139.674C139.712 10.1533 139.866 10.5267 140.136 10.788C140.416 11.04 140.757 11.166 141.158 11.166C141.756 11.166 142.171 10.914 142.404 10.41H144.952C144.822 10.9233 144.584 11.3853 144.238 11.796C143.902 12.2067 143.478 12.5287 142.964 12.762C142.451 12.9953 141.877 13.112 141.242 13.112C140.477 13.112 139.796 12.9487 139.198 12.622C138.601 12.2953 138.134 11.8287 137.798 11.222C137.462 10.6153 137.294 9.906 137.294 9.094C137.294 8.282 137.458 7.57267 137.784 6.966C138.12 6.35933 138.587 5.89267 139.184 5.566C139.782 5.23933 140.468 5.076 141.242 5.076C141.998 5.076 142.67 5.23467 143.258 5.552C143.846 5.86933 144.304 6.322 144.63 6.91C144.966 7.498 145.134 8.184 145.134 8.968ZM142.684 8.338C142.684 7.92733 142.544 7.60067 142.264 7.358C141.984 7.11533 141.634 6.994 141.214 6.994C140.813 6.994 140.472 7.11067 140.192 7.344C139.922 7.57733 139.754 7.90867 139.688 8.338H142.684Z" fill="black"/>
<path d="M149.575 13.112C148.894 13.112 148.287 12.9953 147.755 12.762C147.223 12.5287 146.803 12.2113 146.495 11.81C146.187 11.3993 146.015 10.942 145.977 10.438H148.343C148.371 10.7087 148.497 10.928 148.721 11.096C148.945 11.264 149.221 11.348 149.547 11.348C149.846 11.348 150.075 11.292 150.233 11.18C150.401 11.0587 150.485 10.9047 150.485 10.718C150.485 10.494 150.369 10.3307 150.135 10.228C149.902 10.116 149.524 9.99467 149.001 9.864C148.441 9.73333 147.975 9.598 147.601 9.458C147.228 9.30867 146.906 9.08 146.635 8.772C146.365 8.45467 146.229 8.03 146.229 7.498C146.229 7.05 146.351 6.644 146.593 6.28C146.845 5.90667 147.209 5.61267 147.685 5.398C148.171 5.18333 148.745 5.076 149.407 5.076C150.387 5.076 151.157 5.31867 151.717 5.804C152.287 6.28933 152.613 6.93333 152.697 7.736H150.485C150.448 7.46533 150.327 7.25067 150.121 7.092C149.925 6.93333 149.664 6.854 149.337 6.854C149.057 6.854 148.843 6.91 148.693 7.022C148.544 7.12467 148.469 7.26933 148.469 7.456C148.469 7.68 148.586 7.848 148.819 7.96C149.062 8.072 149.435 8.184 149.939 8.296C150.518 8.44533 150.989 8.59467 151.353 8.744C151.717 8.884 152.035 9.11733 152.305 9.444C152.585 9.76133 152.73 10.1907 152.739 10.732C152.739 11.1893 152.609 11.6 152.347 11.964C152.095 12.3187 151.727 12.5987 151.241 12.804C150.765 13.0093 150.21 13.112 149.575 13.112Z" fill="black"/>
<path d="M158.558 10.97V13H157.34C156.472 13 155.795 12.79 155.31 12.37C154.825 11.9407 154.582 11.2453 154.582 10.284V7.176H153.63V5.188H154.582V3.284H156.976V5.188H158.544V7.176H156.976V10.312C156.976 10.5453 157.032 10.7133 157.144 10.816C157.256 10.9187 157.443 10.97 157.704 10.97H158.558Z" fill="black"/>
<path d="M0 2.50846C0 1.33618 0.955778 0.38586 2.13479 0.38586H25.743C26.9221 0.38586 27.8778 1.33618 27.8778 2.50846V13.496C27.8778 14.6683 26.9221 15.6186 25.743 15.6186H2.13479C0.955778 15.6186 0 14.6683 0 13.496V2.50846Z" fill="black"/>
<path d="M0.627879 2.50846C0.627879 1.68097 1.30255 1.01015 2.13479 1.01015H25.743C26.5753 1.01015 27.25 1.68097 27.25 2.50846V13.496C27.25 14.3235 26.5753 14.9944 25.743 14.9944H2.13479C1.30255 14.9944 0.627879 14.3235 0.627879 13.496V2.50846Z" fill="#E6F5F9"/>
<path d="M15.071 10.1184H12.6693L12.2843 11.2486H10.6434L12.9718 4.85007H14.7869L17.1153 11.2486H15.456L15.071 10.1184ZM14.6677 8.91522L13.8701 6.57274L13.0818 8.91522H14.6677Z" fill="black"/>
<path d="M18.3539 7.59761C18.1017 6.45246 18.8309 5.32087 19.9827 5.07014L43.0446 0.0495669C44.1963 -0.201164 45.3344 0.523908 45.5866 1.66906L47.9502 12.4024C48.2023 13.5475 47.4731 14.6791 46.3214 14.9299L23.2594 19.9504C22.1077 20.2012 20.9696 19.4761 20.7174 18.3309L18.3539 7.59761Z" fill="black"/>
<path d="M18.9672 7.46409C18.7892 6.65575 19.304 5.85698 20.117 5.67999L43.1789 0.659415C43.9919 0.482428 44.7952 0.994244 44.9733 1.80259L47.3368 12.5359C47.5148 13.3443 47 14.143 46.1871 14.32L23.1251 19.3406C22.3121 19.5176 21.5088 19.0058 21.3308 18.1974L18.9672 7.46409Z" fill="#FFEFE2"/>
<path d="M34.6154 9.64563C34.9966 9.64352 35.329 9.76088 35.6126 9.99771C35.8949 10.2286 36.076 10.5251 36.1557 10.8872C36.2707 11.4095 36.1772 11.8653 35.875 12.2546C35.5775 12.6366 35.1004 12.8991 34.4437 13.042L31.5154 13.6795L30.139 7.42906L32.9688 6.81303C33.6076 6.67397 34.1381 6.71087 34.5603 6.92375C34.9885 7.13533 35.2576 7.49042 35.3674 7.98903C35.4484 8.35706 35.4172 8.6842 35.2738 8.97046C35.1363 9.25542 34.9169 9.48047 34.6154 9.64563ZM32.2272 9.62438L33.2301 9.40603C33.4808 9.35145 33.6601 9.25644 33.7679 9.121C33.8804 8.97833 33.9131 8.80014 33.8661 8.58645C33.819 8.37276 33.7144 8.22447 33.5523 8.14158C33.3961 8.05739 33.1926 8.04259 32.9419 8.09718L31.9389 8.31552L32.2272 9.62438ZM33.9045 11.8718C34.1612 11.8159 34.3458 11.7166 34.4582 11.574C34.5754 11.4241 34.6098 11.2393 34.5614 11.0197C34.513 10.8 34.4005 10.6441 34.2238 10.552C34.0531 10.4585 33.8394 10.4397 33.5827 10.4956L32.4722 10.7373L32.7761 12.1174L33.9045 11.8718Z" fill="black"/>
</svg>
